# Made in Blockbench 4.7.2
mtllib mine.mtl

o cylinder
v 0.10825317547305481 0.25 0.1875
v 0.10825317547305481 0.375 0.1875
v 0.21650635094610965 0.25 1.3257190484061335e-17
v 0.21650635094610965 0.375 1.3257190484061335e-17
v 0.10825317547305481 0.25 -0.1875
v 0.10825317547305481 0.375 -0.1875
v -0.10825317547305485 0.25 -0.1875
v -0.10825317547305485 0.375 -0.1875
v -0.21650635094610965 0.25 -3.9771571452184006e-17
v -0.21650635094610965 0.375 -3.9771571452184006e-17
v -0.10825317547305492 0.25 0.18749999999999992
v -0.10825317547305492 0.375 0.18749999999999992
v 0.08118988160479111 0.4375 -0.140625
v -0.08118988160479114 0.4375 -0.140625
v 0 0.4375 0
v 0.16237976320958225 0.4375 9.942892863046002e-18
v 0.08118988160479111 0.4375 0.140625
v -0.0811898816047912 0.4375 0.14062499999999994
v -0.16237976320958225 0.4375 -2.9828678589138005e-17
vt 0.28125 0.515625
vt 0.328125 0.515625
vt 0.328125 0.546875
vt 0.28125 0.546875
vt 0.34375 0.515625
vt 0.390625 0.515625
vt 0.390625 0.546875
vt 0.34375 0.546875
vt 0.15625 0.546875
vt 0.203125 0.546875
vt 0.203125 0.578125
vt 0.15625 0.578125
vt 0.125 0.5
vt 0.171875 0.5
vt 0.171875 0.53125
vt 0.125 0.53125
vt 0.21875 0.515625
vt 0.265625 0.515625
vt 0.265625 0.546875
vt 0.21875 0.546875
vt 0.4375 0.59375
vt 0.484375 0.59375
vt 0.484375 0.625
vt 0.4375 0.625
vt 0.332796875 0.6484375
vt 0.35309531250000004 0.68359375
vt 0.3125 0.68359375
vt 0.35309531250000004 0.68359375
vt 0.332796875 0.71875
vt 0.3125 0.68359375
vt 0.332796875 0.71875
vt 0.292203125 0.71875
vt 0.3125 0.68359375
vt 0.292203125 0.71875
vt 0.2719046875 0.68359375
vt 0.3125 0.68359375
vt 0.2719046875 0.68359375
vt 0.292203125 0.6484375
vt 0.3125 0.68359375
vt 0.292203125 0.6484375
vt 0.332796875 0.6484375
vt 0.3125 0.68359375
vt 0.410921875 0.8125
vt 0.370328125 0.8125
vt 0.3635609375 0.796875
vt 0.4176890625 0.796875
vt 0.1723609375 0.46875
vt 0.1317671875 0.46875
vt 0.125 0.453125
vt 0.179128125 0.453125
vt 0.4307328125 0.484375
vt 0.3901390625 0.484375
vt 0.38337187500000003 0.46875
vt 0.4375 0.46875
vt 0.567171875 0.875
vt 0.526578125 0.875
vt 0.5198109375 0.859375
vt 0.5739390625 0.859375
vt 0.5629859375 0.84375
vt 0.5223921875 0.84375
vt 0.515625 0.828125
vt 0.569753125 0.828125
vt 0.5088578125 0.484375
vt 0.4682640625 0.484375
vt 0.46149687500000003 0.46875
vt 0.515625 0.46875
vn 0.8660254037844387 0 0.5000000000000001
vn 0.8660254037844387 0 -0.5000000000000001
vn 0 0 -1
vn -0.8660254037844387 0 -0.49999999999999994
vn -0.8660254037844388 0 0.4999999999999997
vn -3.8459253727671266e-16 0 1
vn 0 1 0
vn 0 1 0
vn 0 1 0
vn 0 1 0
vn 0 1 0
vn 0 1 0
vn 0 0.6 -0.8
vn 0.692820323027551 0.5999999999999998 -0.4000000000000002
vn 0.6928203230275509 0.6 0.4000000000000001
vn -2.7348802650788464e-16 0.5999999999999999 0.8000000000000003
vn -0.692820323027551 0.6000000000000001 0.3999999999999998
vn -0.6928203230275509 0.6000000000000001 -0.4000000000000001
usemtl m_eb166dd7-e79c-295e-7060-2f64dc62f2a0
f 1/1/1 3/2/1 4/3/1 2/4/1
f 3/5/2 5/6/2 6/7/2 4/8/2
f 5/9/3 7/10/3 8/11/3 6/12/3
f 7/13/4 9/14/4 10/15/4 8/16/4
f 9/17/5 11/18/5 12/19/5 10/20/5
f 11/21/6 1/22/6 2/23/6 12/24/6
f 17/25/7 16/26/7 15/27/7
f 16/28/8 13/29/8 15/30/8
f 13/31/9 14/32/9 15/33/9
f 14/34/10 19/35/10 15/36/10
f 19/37/11 18/38/11 15/39/11
f 18/40/12 17/41/12 15/42/12
f 14/43/13 13/44/13 6/45/13 8/46/13
f 13/47/14 16/48/14 4/49/14 6/50/14
f 16/51/15 17/52/15 2/53/15 4/54/15
f 17/55/16 18/56/16 12/57/16 2/58/16
f 18/59/17 19/60/17 10/61/17 12/62/17
f 19/63/18 14/64/18 8/65/18 10/66/18
o cylinder
v 0 0 0
v 0.20710678118654754 0 0.5
v 0.1812184335382291 0.3125 0.43749999999999994
v 0.5 0 0.20710678118654757
v 0.4375 0.3125 0.1812184335382291
v 0.5 0 -0.20710678118654752
v 0.4375 0.3125 -0.18121843353822908
v 0.2071067811865476 0 -0.5
v 0.18121843353822917 0.3125 -0.4375
v -0.2071067811865475 0 -0.5000000000000001
v -0.18121843353822906 0.3125 -0.43750000000000006
v -0.4999999999999999 0 -0.20710678118654785
v -0.4374999999999999 0.3125 -0.18121843353822936
v -0.49999999999999994 0 0.20710678118654766
v -0.4375 0.3125 0.1812184335382292
v -0.20710678118654788 0 0.4999999999999999
v -0.1812184335382294 0.3125 0.4374999999999999
v 0.328125 0.3125 0.13591382515367184
v 0.1359138251536718 0.3125 0.32812499999999994
v -0.3281249999999999 0.3125 -0.135913825153672
v -0.328125 0.3125 0.1359138251536719
v -0.13591382515367179 0.3125 -0.32812500000000006
v 0.13591382515367187 0.3125 -0.328125
v 0.328125 0.3125 -0.1359138251536718
v -0.13591382515367204 0.3125 0.3281249999999999
v 0.30859375 0.25 0.12782371651357233
v 0.12782371651357233 0.25 0.30859374999999994
v -0.3085937499999999 0.25 -0.12782371651357247
v -0.30859375 0.25 0.12782371651357238
v 3.469446951953614e-18 0.3125 -6.938893903907228e-18
v -0.12782371651357227 0.25 -0.30859375000000006
v 0.12782371651357236 0.25 -0.30859375
v 0.30859375 0.25 -0.1278237165135723
v -0.12782371651357252 0.25 0.3085937499999999
vt 0.25 0.9267765625
vt 0.1767765625 1
vt 0.125 0.875
vt 0.443321875 0.640625
vt 0.546875 0.640625
vt 0.540403125 0.71875
vt 0.44979375 0.71875
vt 0.0495954866544187 0.7307726979925819
vt 0.006353792229682298 0.6837092990553215
vt 0.08593749999999997 0.6539849150104825
vt 0.25 0.8232234375
vt 0.25 0.9267765625
vt 0.125 0.875
vt 0.3935359375 0.828125
vt 0.4970890625 0.828125
vt 0.4906171875 0.90625
vt 0.4000078125 0.90625
vt 0.006353792229682312 0.6837092990553215
vt 0.008155659464335469 0.6198222038739105
vt 0.08593750000000001 0.6539849150104825
vt 0.1767765625 0.75
vt 0.25 0.8232234375
vt 0.125 0.875
vt 0.40625 0.5
vt 0.509803125 0.5
vt 0.50333125 0.578125
vt 0.412721875 0.578125
vt 0.008155659464335469 0.6198222038739105
vt 0.05398125 0.5752708525104825
vt 0.0859375 0.6539849150104825
vt 0.0732234375 0.75
vt 0.1767765625 0.75
vt 0.125 0.875
vt 0.2685359375 0.828125
vt 0.3720890625 0.828125
vt 0.3656171875 0.90625
vt 0.2750078125 0.90625
vt 0.05398125 0.5752708525104825
vt 0.11789374999999999 0.5752708525104825
vt 0.0859375 0.6539849150104825
vt 0 0.8232234375
vt 0.0732234375 0.75
vt 0.125 0.875
vt 0.005821875000000004 0.46875
vt 0.109375 0.46875
vt 0.10290312500000001 0.546875
vt 0.012293749999999999 0.546875
vt 0.11789374999999999 0.5752708525104825
vt 0.16371934053566453 0.6198222038739105
vt 0.0859375 0.6539849150104825
vt 0 0.9267765625
vt 0 0.8232234375
vt 0.125 0.875
vt 0.3935359375 0.921875
vt 0.4970890625 0.921875
vt 0.4906171875 1
vt 0.4000078125 1
vt 0.16371934053566453 0.6198222038739105
vt 0.1655212077703177 0.6837092990553215
vt 0.08593749999999999 0.6539849150104825
vt 0.0732234375 1
vt 0 0.9267765625
vt 0.125 0.875
vt 0.4375 0.734375
vt 0.541053125 0.734375
vt 0.53458125 0.8125
vt 0.443971875 0.8125
vt 0.1655212077703177 0.6837092990553215
vt 0.12227951334558129 0.7307726979925819
vt 0.08593750000000003 0.6539849150104825
vt 0.1767765625 1
vt 0.0732234375 1
vt 0.125 0.875
vt 0.2685359375 0.921875
vt 0.3720890625 0.921875
vt 0.3656171875 1
vt 0.2750078125 1
vt 0.11340638757657581 0.734375
vt 0.0495954866544187 0.7307726979925819
vt 0.08593749999999997 0.6539849150104825
vt 0.23046875 0.637896875
vt 0.23046875 0.705853125
vt 0.203125 0.7171796875
vt 0.203125 0.6265703125
vt 0.23046875 0.705853125
vt 0.27852187500000003 0.75390625
vt 0.2671953125 0.78125
vt 0.203125 0.7171796875
vt 0.27852187500000003 0.75390625
vt 0.34647812499999997 0.75390625
vt 0.3578046875 0.78125
vt 0.2671953125 0.78125
vt 0.34647812499999997 0.75390625
vt 0.39453125 0.705853125
vt 0.421875 0.7171796875
vt 0.3578046875 0.78125
vt 0.39453125 0.705853125
vt 0.39453125 0.637896875
vt 0.421875 0.6265703125
vt 0.421875 0.7171796875
vt 0.39453125 0.637896875
vt 0.34647812499999997 0.58984375
vt 0.3578046875 0.5625
vt 0.421875 0.6265703125
vt 0.34647812499999997 0.58984375
vt 0.27852187500000003 0.58984375
vt 0.2671953125 0.5625
vt 0.3578046875 0.5625
vt 0.27852187500000003 0.58984375
vt 0.23046875 0.637896875
vt 0.203125 0.6265703125
vt 0.2671953125 0.5625
vt 0.50710625 0.609375
vt 0.57101875 0.609375
vt 0.573040625 0.625
vt 0.505084375 0.625
vt 0.527815625 0.984375
vt 0.5917281249999999 0.984375
vt 0.59375 1
vt 0.5257937500000001 1
vt 0.19460625 0.484375
vt 0.25851875 0.484375
vt 0.26054062499999997 0.5
vt 0.192584375 0.5
vt 0.517646875 0.890625
vt 0.581559375 0.890625
vt 0.5835812499999999 0.90625
vt 0.515625 0.90625
vt 0.28835625 0.484375
vt 0.35226875 0.484375
vt 0.35429062499999997 0.5
vt 0.28633437500000003 0.5
vt 0.527815625 0.953125
vt 0.5917281249999999 0.953125
vt 0.59375 0.96875
vt 0.5257937500000001 0.96875
vt 0.27273125 0.796875
vt 0.33664375 0.796875
vt 0.33866562499999997 0.8125
vt 0.27070937500000003 0.8125
vt 0.517646875 0.921875
vt 0.581559375 0.921875
vt 0.5835812499999999 0.9375
vt 0.515625 0.9375
vn 0 -1 0
vn 0.6933752452815365 0.19611613513818413 0.6933752452815365
vn 0.14036167798388635 0.9801006064211448 0.14036167798388638
vn 0 -1 0
vn 0.9805806756909203 0.19611613513818407 0
vn 0.19850138864225716 0.9801006064211447 0
vn 0 -1 0
vn 0.6933752452815365 0.19611613513818388 -0.6933752452815364
vn 0.14036167798388638 0.9801006064211448 -0.14036167798388635
vn 0 -1 0
vn 2.628265567687907e-16 0.19611613513818413 -0.9805806756909201
vn 4.3102488744195674e-17 0.9801006064211447 -0.19850138864225714
vn 0 -1 0
vn -0.6933752452815362 0.19611613513818416 -0.6933752452815366
vn -0.14036167798388635 0.9801006064211447 -0.14036167798388638
vn 0 -1 0
vn -0.9805806756909203 0.19611613513818388 -1.3141327838439527e-16
vn -0.19850138864225722 0.9801006064211448 -8.620497748839131e-17
vn 0 -1 0
vn -0.6933752452815365 0.19611613513818407 0.6933752452815363
vn -0.14036167798388632 0.9801006064211447 0.1403616779838863
vn 0 -1 0
vn -2.628265567687905e-16 0.19611613513818413 0.9805806756909201
vn -4.3102488744195656e-17 0.9801006064211448 0.19850138864225722
vn 0 1 0
vn 0 1 0
vn 0 1 0
vn 0 1 0
vn 0 1 0
vn 0 1 0
vn 0 1 0
vn 0 1 0
vn 0.9544799780350298 0.29827499313594685 4.1451057638653674e-16
vn 0.6749192649753565 0.2982749931359467 0.6749192649753566
vn -2.0725528819326854e-16 0.2982749931359468 0.9544799780350297
vn -0.6749192649753566 0.2982749931359468 0.6749192649753564
vn -0.9544799780350299 0.2982749931359468 0
vn -0.6749192649753565 0.29827499313594646 -0.6749192649753567
vn 2.0725528819326837e-16 0.29827499313594685 -0.9544799780350298
vn 0.6749192649753566 0.2982749931359469 -0.6749192649753565
usemtl m_eb166dd7-e79c-295e-7060-2f64dc62f2a0
f 23/67/19 21/68/19 20/69/19
f 21/70/20 23/71/20 24/72/20 22/73/20
f 46/74/21 45/75/21 49/76/21
f 25/77/22 23/78/22 20/79/22
f 23/80/23 25/81/23 26/82/23 24/83/23
f 45/84/24 52/85/24 49/86/24
f 27/87/25 25/88/25 20/89/25
f 25/90/26 27/91/26 28/92/26 26/93/26
f 52/94/27 51/95/27 49/96/27
f 29/97/28 27/98/28 20/99/28
f 27/100/29 29/101/29 30/102/29 28/103/29
f 51/104/30 50/105/30 49/106/30
f 31/107/31 29/108/31 20/109/31
f 29/110/32 31/111/32 32/112/32 30/113/32
f 50/114/33 47/115/33 49/116/33
f 33/117/34 31/118/34 20/119/34
f 31/120/35 33/121/35 34/122/35 32/123/35
f 47/124/36 48/125/36 49/126/36
f 35/127/37 33/128/37 20/129/37
f 33/130/38 35/131/38 36/132/38 34/133/38
f 48/134/39 53/135/39 49/136/39
f 21/137/40 35/138/40 20/139/40
f 35/140/41 21/141/41 22/142/41 36/143/41
f 53/144/42 46/145/42 49/146/42
f 40/147/43 39/148/43 32/149/43 34/150/43
f 39/151/44 41/152/44 30/153/44 32/154/44
f 41/155/45 42/156/45 28/157/45 30/158/45
f 42/159/46 43/160/46 26/161/46 28/162/46
f 43/163/47 37/164/47 24/165/47 26/166/47
f 37/167/48 38/168/48 22/169/48 24/170/48
f 38/171/49 44/172/49 36/173/49 22/174/49
f 44/175/50 40/176/50 34/177/50 36/178/50
f 48/179/51 47/180/51 39/181/51 40/182/51
f 47/183/52 50/184/52 41/185/52 39/186/52
f 50/187/53 51/188/53 42/189/53 41/190/53
f 51/191/54 52/192/54 43/193/54 42/194/54
f 52/195/55 45/196/55 37/197/55 43/198/55
f 45/199/56 46/200/56 38/201/56 37/202/56
f 46/203/57 53/204/57 44/205/57 38/206/57
f 53/207/58 48/208/58 40/209/58 44/210/58